<?xml version="1.0" encoding="UTF-8"?>
<svg xmlns="http://www.w3.org/2000/svg" xmlns:xlink="http://www.w3.org/1999/xlink" aria-hidden="true" style="position: absolute; width: 0; height: 0; overflow: hidden;">
<symbol id="icon-pletivo" viewBox="0 0 24 24">
<path fill-rule="nonzero" fill="rgb(0%, 0%, 0%)" fill-opacity="1" d="M 173.835938 9.179688 C 176.089844 25.851562 179.167969 35.378906 187.574219 51.519531 L 195.980469 67.660156 L 182.652344 83.53125 C 175.476562 92.269531 151.484375 117.929688 129.542969 140.691406 C 107.597656 163.179688 80.328125 191.761719 69.046875 203.929688 C 57.769531 216.109375 37.671875 236.75 24.550781 249.710938 L 0.351562 273.519531 L 0.351562 342.320312 L 7.117188 336.238281 C 62.074219 286.488281 110.058594 239.390625 153.945312 192.820312 C 211.769531 131.429688 232.6875 111.058594 235.351562 113.441406 C 242.53125 120.050781 287.847656 166.890625 313.070312 193.878906 C 348.546875 231.71875 379.308594 262.148438 440.824219 319.570312 C 467.074219 343.910156 500.703125 376.71875 515.671875 392.070312 C 530.4375 407.421875 562.632812 439.171875 586.828125 462.71875 C 611.230469 486.269531 637.890625 513.789062 646.296875 523.839844 L 661.472656 542.371094 L 654.910156 553.210938 C 634.8125 586.03125 634.8125 622.808594 654.910156 655.089844 L 661.0625 665.410156 L 649.167969 681.28125 C 642.402344 690.019531 614.511719 720.449219 587.035156 749.03125 C 559.554688 777.871094 526.542969 812.269531 513.417969 825.761719 C 500.5 839.261719 461.742188 876.828125 427.496094 908.851562 C 393.457031 941.128906 352.648438 980.289062 337.269531 996.441406 C 321.683594 1012.308594 292.769531 1040.890625 273.085938 1059.679688 C 253.398438 1078.730469 236.171875 1095.140625 235.148438 1096.460938 C 232.890625 1098.570312 186.34375 1054.910156 129.542969 996.960938 C 103.5 970.238281 12.246094 882.921875 3.019531 875.511719 C 0.96875 873.921875 0.351562 881.070312 0.351562 908.058594 L 0.351562 942.460938 L 17.371094 958.859375 C 26.601562 968.121094 43.003906 984.53125 53.667969 995.640625 C 64.332031 1006.75 93.859375 1035.859375 119.289062 1060.46875 C 144.714844 1085.339844 172.195312 1113.921875 180.601562 1124.238281 L 195.980469 1143.03125 L 189.417969 1153.351562 C 179.578125 1169.230469 174.246094 1187.21875 174.246094 1204.421875 C 174.246094 1221.878906 177.9375 1234.578125 188.1875 1253.109375 L 195.777344 1266.601562 L 180.601562 1285.390625 C 172.195312 1295.710938 147.382812 1322.429688 125.441406 1345.191406 C 103.5 1367.679688 76.636719 1395.730469 65.972656 1407.371094 C 55.308594 1418.75 36.03125 1438.332031 23.523438 1450.769531 L 0.351562 1473.261719 L 0.351562 1506.867188 C 0.351562 1525.652344 0.96875 1540.734375 1.582031 1540.734375 C 4.042969 1540.734375 99.191406 1449.976562 124.414062 1423.515625 C 226.742188 1316.871094 233.097656 1310.789062 236.171875 1314.230469 C 237.8125 1316.078125 255.039062 1333.808594 274.109375 1353.390625 C 293.386719 1372.96875 320.660156 1401.550781 334.808594 1416.632812 C 349.164062 1431.71875 390.378906 1471.9375 426.472656 1505.808594 C 462.355469 1539.941406 502.550781 1578.574219 515.261719 1591.804688 C 528.183594 1605.035156 556.890625 1633.613281 579.039062 1655.046875 C 617.792969 1692.621094 653.066406 1729.136719 658.394531 1737.339844 C 660.445312 1740.78125 659.421875 1744.21875 652.65625 1757.1875 C 647.9375 1765.917969 643.015625 1779.675781 641.171875 1788.410156 C 638.503906 1802.699219 638.503906 1805.875 641.171875 1819.898438 C 643.015625 1828.367188 648.144531 1842.390625 652.65625 1851.121094 L 661.0625 1866.734375 L 652.039062 1878.640625 C 647.324219 1885.257812 621.074219 1913.570312 594.007812 1941.882812 C 566.9375 1969.929688 532.898438 2005.652344 518.132812 2021 C 503.574219 2036.347656 463.996094 2074.714844 430.367188 2106.203125 C 396.738281 2137.691406 357.160156 2176.0625 342.191406 2191.410156 C 312.457031 2222.101562 234.738281 2297.515625 233.097656 2297.515625 C 231.457031 2297.515625 153.738281 2222.101562 124.003906 2191.410156 C 96.730469 2163.359375 3.839844 2075.246094 1.582031 2075.246094 C 0.96875 2075.246094 0.351562 2090.59375 0.351562 2109.113281 L 0.351562 2142.984375 L 14.089844 2156.214844 C 21.882812 2163.359375 39.519531 2181.089844 53.667969 2195.640625 C 67.816406 2209.929688 99.191406 2241.15625 123.390625 2264.703125 C 147.585938 2288.253906 173.835938 2314.980469 181.625 2324.507812 L 195.777344 2341.441406 L 188.394531 2354.671875 C 179.578125 2370.546875 174.65625 2384.574219 174.65625 2394.097656 L 174.65625 2400.714844 L 291.539062 2400.714844 L 291.539062 2394.097656 C 291.539062 2384.574219 286.617188 2370.546875 277.800781 2354.671875 L 270.417969 2341.441406 L 284.566406 2324.507812 C 292.359375 2314.980469 322.300781 2284.550781 351.007812 2256.238281 C 379.71875 2228.1875 413.140625 2195.113281 425.242188 2182.675781 C 437.339844 2170.503906 473.839844 2135.3125 506.238281 2104.882812 C 538.84375 2074.453125 576.167969 2038.199219 589.085938 2024.703125 C 683.824219 1925.742188 698.382812 1911.453125 700.433594 1913.304688 C 704.742188 1917.539062 784.304688 1999.832031 809.117188 2025.761719 C 822.855469 2039.789062 861.40625 2077.363281 894.832031 2108.851562 C 928.464844 2140.339844 968.246094 2178.441406 983.007812 2194.054688 C 997.980469 2209.402344 1030.179688 2241.15625 1054.371094 2264.703125 C 1078.570312 2288.253906 1104.820312 2315.246094 1112.609375 2324.507812 L 1126.761719 2341.441406 L 1119.578125 2354.40625 C 1110.148438 2371.605469 1108.300781 2376.632812 1105.839844 2389.863281 L 1104 2400.714844 L 1222.519531 2400.714844 L 1222.519531 2394.363281 C 1222.519531 2385.367188 1216.980469 2369.488281 1208.578125 2354.671875 L 1201.191406 2341.707031 L 1215.339844 2324.507812 C 1223.339844 2315.246094 1253.28125 2284.285156 1281.988281 2256.238281 C 1310.699219 2228.1875 1344.941406 2194.320312 1357.859375 2181.089844 C 1370.78125 2167.859375 1407.28125 2132.929688 1438.859375 2103.292969 C 1470.441406 2073.65625 1504.691406 2040.582031 1514.941406 2029.996094 C 1610.910156 1929.710938 1629.371094 1911.453125 1631.410156 1913.304688 C 1635.308594 1917.273438 1712.621094 1997.1875 1738.460938 2024.175781 C 1752.199219 2038.464844 1790.949219 2076.039062 1824.589844 2107.527344 C 1858.421875 2139.28125 1898.820312 2178.441406 1914.609375 2194.582031 C 1930.398438 2210.988281 1962.800781 2243.007812 1986.378906 2265.761719 C 2010.160156 2288.785156 2035.800781 2315.246094 2043.390625 2324.507812 L 2057.539062 2341.175781 L 2048.308594 2358.90625 C 2043.179688 2368.695312 2038.058594 2381.925781 2037.230469 2388.011719 L 2035.390625 2399.390625 L 2093.828125 2400.183594 C 2125.820312 2400.449219 2152.480469 2400.183594 2153.089844 2399.390625 C 2155.761719 2395.949219 2148.578125 2371.871094 2140.789062 2357.316406 L 2132.378906 2341.441406 L 2146.53125 2324.507812 C 2154.320312 2314.980469 2184.261719 2284.285156 2212.96875 2256.238281 C 2241.679688 2228.1875 2275.929688 2194.320312 2288.839844 2181.089844 C 2301.769531 2167.859375 2338.269531 2132.929688 2369.839844 2103.292969 C 2401.429688 2073.394531 2438.75 2037.140625 2452.890625 2022.324219 C 2467.039062 2007.769531 2491.859375 1981.839844 2508.261719 1964.902344 C 2524.671875 1947.96875 2542.921875 1928.917969 2549.070312 1922.566406 C 2556.039062 1915.421875 2560.960938 1911.980469 2562.398438 1913.304688 C 2563.628906 1914.628906 2578.191406 1929.445312 2595 1946.644531 L 2625.148438 1977.339844 L 2625.148438 1901.132812 L 2597.671875 1866.734375 L 2603.210938 1857.207031 C 2623.921875 1822.28125 2624.328125 1789.46875 2604.230469 1753.214844 L 2597.46875 1741.308594 L 2611.410156 1724.902344 L 2625.148438 1708.761719 L 2625.148438 1635.996094 L 2592.75 1667.21875 L 2560.351562 1698.707031 L 2515.230469 1654.78125 C 2490.421875 1630.703125 2460.480469 1600.800781 2448.789062 1588.628906 C 2436.898438 1576.457031 2399.171875 1540.207031 2364.921875 1507.925781 C 2330.679688 1475.90625 2291.921875 1438.066406 2278.589844 1424.308594 C 2265.261719 1410.546875 2232.039062 1375.878906 2204.570312 1347.039062 C 2177.089844 1318.460938 2149.609375 1288.558594 2143.660156 1280.621094 L 2132.589844 1266.339844 L 2139.96875 1253.109375 C 2158.628906 1219.769531 2158.019531 1182.460938 2138.328125 1152.558594 C 2133.410156 1145.140625 2133 1143.289062 2135.460938 1139.058594 C 2141 1129 2166.21875 1102.019531 2212.96875 1056.238281 C 2239.429688 1030.308594 2271.820312 998.289062 2284.738281 985.058594 C 2297.660156 971.828125 2336.011719 935.050781 2369.839844 903.289062 C 2403.679688 871.28125 2440.589844 835.558594 2451.871094 823.640625 C 2504.78125 768.078125 2556.660156 714.628906 2558.910156 713.308594 C 2560.140625 712.78125 2575.320312 726.539062 2592.75 744 L 2624.121094 776.019531 L 2624.738281 738.441406 L 2625.351562 700.871094 L 2611.820312 684.730469 C 2604.441406 676 2598.488281 667.789062 2598.488281 666.730469 C 2598.488281 665.679688 2601.769531 659.058594 2605.660156 651.910156 C 2615.921875 633.660156 2619 622.28125 2619 604.019531 C 2619 585.5 2615.921875 574.390625 2605.460938 555.601562 L 2598.078125 542.371094 L 2611.609375 525.171875 L 2625.351562 507.96875 L 2624.738281 472.511719 L 2624.121094 437.058594 L 2592.539062 467.75 C 2575.109375 484.421875 2560.351562 497.910156 2559.730469 497.648438 C 2556.25 495.53125 2482.21875 423.03125 2455.359375 395.511719 C 2438.128906 377.78125 2397.53125 338.621094 2365.328125 308.449219 C 2333.140625 278.019531 2293.148438 239.390625 2276.75 222.191406 C 2260.339844 204.988281 2226.921875 170.328125 2202.519531 145.191406 C 2178.109375 119.789062 2152.269531 92 2145.101562 83.269531 L 2131.96875 67.390625 L 2138.738281 55.488281 C 2147.96875 38.550781 2153.5 22.410156 2153.5 10.5 L 2153.5 0.710938 L 2034.359375 0.710938 L 2035.800781 10.5 C 2037.640625 24.53125 2043.390625 40.929688 2051.378906 55.21875 L 2058.148438 67.390625 L 2044.820312 83.269531 C 2037.441406 92.269531 2008.929688 122.699219 1981.460938 151.28125 C 1953.980469 179.859375 1920.96875 213.988281 1908.25 227.480469 C 1895.328125 240.710938 1860.058594 274.851562 1829.921875 303.160156 C 1799.769531 331.46875 1765.121094 364.820312 1752.609375 377.519531 C 1726.359375 403.980469 1634.691406 493.679688 1631.210938 496.320312 C 1628.960938 498.179688 1568.460938 441.019531 1519.859375 391.011719 C 1505.71875 376.460938 1466.960938 338.878906 1433.730469 307.660156 C 1400.519531 276.441406 1360.320312 237.269531 1344.539062 220.871094 C 1328.75 204.460938 1295.929688 170.328125 1271.738281 145.191406 C 1247.539062 120.050781 1221.699219 92.269531 1214.519531 83.53125 L 1201.191406 67.660156 L 1209.601562 51.519531 C 1218.011719 35.378906 1221.089844 25.851562 1223.339844 9.179688 L 1224.570312 0.710938 L 1103.378906 0.710938 L 1104.820312 10.5 C 1106.660156 24.53125 1112.398438 40.929688 1120.398438 55.21875 L 1127.171875 67.390625 L 1113.839844 83.53125 C 1102.148438 97.300781 1071.800781 129.308594 976.859375 228.011719 C 963.527344 241.511719 928.464844 275.640625 898.523438 303.691406 C 868.585938 331.738281 834.132812 364.820312 821.625 377.519531 C 795.171875 404.238281 701.253906 496.589844 699.410156 497.648438 C 697.972656 498.441406 624.152344 427.261719 591.136719 392.859375 C 578.21875 379.628906 539.460938 342.058594 505.011719 309.78125 C 470.558594 277.230469 432.007812 240.179688 419.292969 226.949219 C 406.785156 213.988281 373.976562 179.859375 346.496094 151.28125 C 319.222656 122.699219 290.71875 92.269531 283.542969 83.53125 L 270.214844 67.660156 L 278.621094 51.519531 C 287.027344 35.378906 290.105469 25.851562 292.359375 9.179688 L 293.589844 0.710938 L 172.808594 0.710938 Z M 1211.449219 160.011719 C 1237.078125 186.730469 1266.820312 217.691406 1277.679688 229.070312 C 1288.550781 240.179688 1324.640625 275.109375 1357.859375 306.339844 C 1391.078125 337.558594 1433.121094 378.308594 1451.171875 396.570312 C 1469.210938 415.089844 1501.609375 447.109375 1522.941406 467.75 C 1544.46875 488.390625 1568.671875 513.519531 1577.070312 523.839844 L 1592.449219 542.101562 L 1585.890625 552.691406 C 1565.800781 585.230469 1565.800781 622.808594 1585.890625 655.089844 L 1592.039062 665.410156 L 1580.148438 681.28125 C 1573.378906 690.019531 1545.5 720.449219 1518.019531 749.03125 C 1490.539062 777.871094 1457.320312 812.269531 1444.191406 826.03125 C 1431.070312 839.519531 1394.570312 874.980469 1362.988281 904.621094 C 1331.410156 934.25 1294.910156 969.179688 1281.988281 982.410156 C 1269.070312 995.640625 1238.109375 1026.070312 1213.289062 1050.410156 C 1188.480469 1074.5 1167.160156 1095.398438 1166.128906 1096.460938 C 1163.878906 1098.570312 1099.890625 1037.980469 1054.371094 990.878906 C 1041.449219 977.378906 1003.308594 940.601562 969.476562 908.851562 C 935.84375 877.359375 897.5 840.050781 884.167969 826.289062 C 870.839844 812.53125 837.621094 777.871094 810.140625 749.03125 C 782.664062 720.449219 754.570312 690.019531 748.007812 681.28125 L 735.910156 665.140625 L 741.652344 656.410156 C 762.15625 625.191406 762.363281 585.761719 742.265625 553.210938 L 735.703125 542.371094 L 750.058594 524.898438 C 757.851562 515.378906 788.199219 483.890625 817.523438 455.308594 C 846.847656 426.46875 880.890625 392.859375 892.988281 380.429688 C 905.292969 367.988281 940.355469 334.390625 970.910156 305.539062 C 1001.671875 276.960938 1040.429688 239.121094 1057.238281 221.660156 C 1073.851562 204.199219 1104.410156 172.441406 1124.910156 151.011719 C 1145.210938 129.578125 1162.640625 112.109375 1163.671875 112.109375 C 1164.488281 111.851562 1186.019531 133.550781 1211.449219 160.011719 Z M 2142.230469 160.011719 C 2222.609375 243.621094 2233.070312 253.941406 2292.949219 310.308594 C 2325.140625 340.46875 2365.539062 379.628906 2382.558594 397.101562 C 2399.578125 414.558594 2431.359375 446.050781 2453.308594 467.21875 C 2475.039062 488.121094 2499.648438 513.519531 2508.058594 523.839844 L 2523.441406 542.101562 L 2516.878906 552.691406 C 2496.570312 585.5 2496.570312 622.539062 2516.878906 655.089844 L 2523.03125 665.410156 L 2511.128906 681.28125 C 2504.371094 690.019531 2476.480469 720.449219 2449 749.03125 C 2421.519531 777.871094 2388.5 812 2375.789062 825.230469 C 2363.078125 838.460938 2326.578125 873.921875 2294.589844 904.089844 C 2262.601562 933.988281 2225.890625 969.179688 2212.96875 982.410156 C 2200.058594 995.640625 2169.089844 1026.070312 2144.28125 1050.410156 C 2119.46875 1074.5 2098.140625 1095.398438 2097.109375 1096.460938 C 2094.859375 1098.570312 2030.878906 1037.980469 1985.351562 990.878906 C 1972.429688 977.378906 1934.289062 940.601562 1900.460938 908.851562 C 1866.828125 877.359375 1828.28125 840.050781 1815.148438 826.289062 C 1801.820312 812.53125 1768.601562 777.871094 1741.128906 749.289062 C 1713.640625 720.449219 1685.550781 690.019531 1678.988281 681.28125 L 1666.890625 665.140625 L 1672.628906 656.410156 C 1682.679688 641.328125 1688.011719 623.070312 1688.011719 604.550781 C 1688.011719 585.5 1684.941406 574.390625 1674.480469 555.601562 L 1666.890625 542.101562 L 1681.039062 524.640625 C 1688.828125 515.109375 1719.179688 483.890625 1748.511719 455.308594 C 1777.828125 426.46875 1811.660156 393.128906 1823.769531 380.960938 C 1835.660156 368.519531 1871.339844 334.390625 1902.71875 305.011719 C 1934.089844 275.378906 1973.050781 237.539062 1989.25 220.601562 C 2005.449219 203.671875 2035.390625 172.441406 2055.890625 151.011719 C 2076.199219 129.578125 2093.628906 112.109375 2094.449219 112.109375 C 2095.058594 111.851562 2116.589844 133.550781 2142.230469 160.011719 Z M 736.730469 750.351562 C 756.621094 770.988281 786.765625 802.210938 803.375 819.679688 C 820.191406 837.140625 860.996094 876.828125 894.011719 908.058594 C 927.027344 939.019531 968.039062 978.710938 985.265625 996.171875 C 1002.488281 1013.898438 1034.269531 1045.390625 1056.210938 1066.558594 C 1078.160156 1087.730469 1103.179688 1113.660156 1111.578125 1123.980469 L 1126.960938 1143.03125 L 1121.429688 1151.761719 C 1113.839844 1163.398438 1108.300781 1177.691406 1105.640625 1192.511719 C 1102.558594 1210.238281 1106.25 1227.96875 1117.320312 1249.140625 L 1126.558594 1266.871094 L 1111.378906 1285.390625 C 1103.179688 1295.441406 1073.441406 1327.730469 1045.351562 1356.828125 C 1017.25 1385.941406 985.878906 1418.488281 975.628906 1429.335938 C 965.375 1439.917969 930.308594 1473.789062 897.910156 1504.21875 C 865.507812 1534.648438 829.007812 1569.84375 816.910156 1582.015625 C 804.8125 1594.453125 773.230469 1625.675781 746.777344 1651.605469 L 698.589844 1698.707031 L 657.371094 1658.75 C 634.8125 1636.789062 604.261719 1606.625 589.90625 1591.804688 C 575.347656 1576.722656 536.179688 1538.882812 502.753906 1507.660156 C 469.535156 1476.4375 431.1875 1439.125 417.449219 1425.101562 C 403.710938 1410.8125 370.078125 1375.878906 342.601562 1347.308594 C 315.121094 1318.730469 287.644531 1288.558594 281.695312 1280.621094 L 270.625 1266.339844 L 278.007812 1253.109375 C 288.257812 1234.578125 291.746094 1222.410156 291.746094 1204.679688 C 291.949219 1187.21875 286.617188 1169.488281 276.980469 1153.609375 C 271.648438 1145.140625 271.238281 1143.03125 273.496094 1139.058594 C 279.03125 1129 304.253906 1102.019531 347.933594 1059.679688 C 372.746094 1035.601562 401.863281 1006.75 412.527344 995.640625 C 436.929688 970.238281 461.125 946.949219 518.132812 893.769531 C 542.742188 870.75 574.527344 839.789062 588.46875 824.96875 C 672.136719 737.910156 696.742188 712.78125 698.589844 712.78125 C 699.820312 712.78125 716.839844 729.710938 736.730469 750.351562 Z M 1667.710938 750.351562 C 1687.601562 770.988281 1717.75 802.210938 1734.359375 819.679688 C 1751.171875 837.140625 1791.980469 876.828125 1825 908.058594 C 1858.011719 939.019531 1899.019531 978.710938 1916.25 996.171875 C 1933.46875 1013.898438 1965.460938 1045.648438 1987.398438 1066.558594 C 2009.339844 1087.730469 2033.949219 1113.660156 2042.359375 1123.710938 L 2057.328125 1142.5 L 2051.789062 1151.761719 C 2041.949219 1168.691406 2036 1188.539062 2036 1204.679688 C 2036.210938 1221.878906 2039.898438 1234.578125 2050.148438 1253.109375 L 2057.539062 1266.339844 L 2047.488281 1279.300781 C 2042.160156 1286.710938 2015.5 1315.558594 1988.429688 1343.871094 C 1961.359375 1371.910156 1927.730469 1407.109375 1913.578125 1421.925781 C 1899.429688 1436.746094 1862.109375 1472.996094 1830.53125 1502.632812 C 1798.949219 1532.269531 1762.449219 1567.195312 1749.53125 1580.425781 C 1736.609375 1593.65625 1704.21875 1625.675781 1677.761719 1651.605469 L 1629.570312 1698.707031 L 1593.679688 1664.042969 C 1574 1644.992188 1542.421875 1613.769531 1523.761719 1594.714844 C 1505.101562 1575.664062 1463.679688 1535.707031 1431.480469 1505.542969 C 1399.488281 1475.378906 1362.171875 1439.125 1348.429688 1425.101562 C 1334.691406 1410.8125 1301.058594 1375.878906 1273.578125 1347.308594 C 1246.109375 1318.730469 1218.628906 1288.558594 1212.679688 1280.621094 L 1201.609375 1266.339844 L 1208.78125 1253.371094 C 1218.828125 1235.109375 1222.730469 1221.621094 1222.730469 1204.148438 C 1222.929688 1187.21875 1217.601562 1169.230469 1207.960938 1153.609375 C 1202.628906 1145.140625 1202.21875 1143.03125 1204.480469 1139.058594 C 1210.011719 1129 1235.441406 1101.75 1286.089844 1052.269531 C 1314.800781 1023.960938 1348.640625 990.609375 1360.941406 978.179688 C 1373.449219 965.480469 1408.101562 932.398438 1438.039062 904.089844 C 1467.980469 876.039062 1504.070312 841.109375 1518.019531 826.558594 C 1531.960938 812 1562.308594 780.519531 1585.480469 756.441406 C 1608.648438 732.359375 1628.550781 712.78125 1629.570312 712.78125 C 1630.800781 712.78125 1647.820312 729.710938 1667.710938 750.351562 Z M 1205.089844 1353.390625 C 1224.371094 1372.96875 1251.640625 1401.550781 1265.789062 1416.632812 C 1280.140625 1431.71875 1321.160156 1471.9375 1357.039062 1505.542969 C 1393.128906 1539.414062 1433.53125 1578.574219 1447.070312 1592.597656 C 1460.601562 1606.625 1491.148438 1636.789062 1514.730469 1659.808594 C 1552.671875 1696.589844 1591.628906 1737.605469 1591.628906 1740.78125 C 1591.628906 1741.574219 1588.351562 1748.1875 1584.25 1755.863281 C 1573.589844 1775.707031 1570.71875 1786.027344 1570.71875 1804.019531 C 1570.71875 1822.28125 1574.609375 1835.507812 1585.070312 1854.03125 L 1592.449219 1867 L 1578.71875 1883.933594 C 1571.128906 1893.195312 1544.878906 1921.507812 1520.269531 1946.910156 C 1495.871094 1972.3125 1462.859375 2006.445312 1447.070312 2022.851562 C 1431.269531 2039.257812 1393.128906 2076.304688 1362.578125 2105.144531 C 1331.820312 2133.988281 1296.75 2167.59375 1284.660156 2180.03125 C 1253.898438 2211.253906 1165.519531 2297.515625 1164.289062 2297.515625 C 1162.441406 2297.515625 1093.539062 2230.835938 1059.699219 2196.171875 C 1041.660156 2177.914062 1005.769531 2142.984375 979.730469 2118.640625 C 918.621094 2061.484375 888.066406 2031.320312 851.15625 1992.15625 C 834.75 1974.429688 808.5 1947.175781 792.710938 1931.035156 C 777.128906 1915.15625 757.851562 1893.988281 749.855469 1884.460938 L 735.703125 1867 L 741.242188 1857.207031 C 758.261719 1828.628906 761.542969 1799.789062 750.878906 1772.269531 C 747.597656 1763.535156 742.675781 1752.953125 740.214844 1748.71875 L 735.5 1741.308594 L 748.828125 1725.695312 C 756.210938 1716.964844 785.738281 1686.800781 814.449219 1658.488281 C 843.15625 1630.171875 877.402344 1596.304688 890.320312 1583.074219 C 903.242188 1569.84375 939.742188 1534.914062 971.527344 1505.277344 C 1003.109375 1475.378906 1040.839844 1438.863281 1055.191406 1423.777344 C 1157.929688 1316.871094 1164.078125 1310.789062 1167.160156 1314.230469 C 1168.800781 1316.078125 1186.019531 1333.808594 1205.089844 1353.390625 Z M 2141.820312 1359.738281 C 2164.171875 1382.769531 2193.699219 1413.460938 2207.429688 1427.746094 C 2221.179688 1442.035156 2258.5 1478.023438 2290.28125 1507.660156 C 2322.070312 1537.558594 2362.261719 1576.457031 2379.480469 1594.1875 C 2396.710938 1611.914062 2428.488281 1643.140625 2449.820312 1663.777344 C 2485.5 1698.179688 2522.621094 1737.605469 2522.621094 1741.042969 C 2522.621094 1741.839844 2519.539062 1747.925781 2515.640625 1754.804688 C 2505.390625 1773.0625 2501.5 1786.027344 2501.699219 1804.019531 C 2501.699219 1822.015625 2505.390625 1835.246094 2515.851562 1854.03125 L 2523.230469 1867.261719 L 2509.699219 1883.667969 C 2502.320312 1892.929688 2473.398438 1923.890625 2445.71875 1952.730469 C 2417.828125 1981.574219 2386.25 2014.386719 2375.378906 2025.761719 C 2364.308594 2037.140625 2329.238281 2071.277344 2297.050781 2101.707031 C 2264.851562 2131.871094 2228.558594 2166.800781 2216.050781 2179.5 C 2181.191406 2214.695312 2096.289062 2297.515625 2095.269531 2297.515625 C 2093.21875 2297.515625 2023.289062 2229.777344 1992.121094 2197.757812 C 1975.511719 2180.558594 1933.679688 2140.074219 1899.230469 2107.527344 C 1864.78125 2075.246094 1827.871094 2039.523438 1817 2028.410156 C 1806.128906 2017.03125 1774.339844 1983.957031 1746.25 1954.847656 C 1718.160156 1925.742188 1688.828125 1893.988281 1680.839844 1884.460938 L 1666.691406 1867 L 1672.21875 1857.207031 C 1692.929688 1822.28125 1693.339844 1789.46875 1673.25 1753.214844 L 1666.480469 1741.042969 L 1679.808594 1725.433594 C 1687.191406 1716.699219 1716.71875 1686.535156 1745.429688 1658.488281 C 1774.140625 1630.171875 1808.378906 1596.304688 1821.308594 1583.074219 C 1834.21875 1569.84375 1871.128906 1534.648438 1903.128906 1504.484375 C 1935.109375 1474.320312 1972.839844 1437.804688 1986.988281 1422.984375 C 2090.140625 1315.558594 2094.859375 1310.789062 2098.140625 1314.230469 C 2099.78125 1316.078125 2119.46875 1336.71875 2141.820312 1359.738281 Z M 2141.820312 1359.738281 "/>
</symbol>
</svg>
