<svg aria-hidden="true" style="position: absolute; width: 0; height: 0; overflow: hidden;" version="1.1" xmlns="http://www.w3.org/2000/svg" xmlns:xlink="http://www.w3.org/1999/xlink">
  <defs>
    <symbol id="icon-talks" viewBox="0 0 24 24">
      <path fill-rule="evenodd" clip-rule="evenodd" d="M5 9.5C5 7.01472 7.01472 5 9.5 5C11.9853 5 14 7.01472 14 9.5C14 11.9853 11.5853 14 9.5 14C7.01472 14 5 11.9853 5 9.5Z" fill="#ffbf00"/>
      <path d="M14.3675 12.0632C14.322 12.1494 14.3413 12.2569 14.4196 12.3149C15.0012 12.7454 15.7209 13 16.5 13C18.433 13 20 11.433 20 9.5C20 7.567 18.433 6 16.5 6C15.7209 6 15.0012 6.2546 14.4196 6.68513C14.3413 6.74313 14.322 6.85058 14.3675 6.93679C14.7714 7.70219 15 8.5744 15 9.5C15 10.4256 14.7714 11.2978 14.3675 12.0632Z" fill="#ffbf00"/>
      <path fill-rule="evenodd" clip-rule="evenodd" d="M4.64115 15.6993C5.87351 15.1644 7.49045 15 9.49995 15C11.5112 15 13.1293 15.1647 14.3621 15.7008C15.705 16.2847 16.5212 17.2793 16.949 18.6836C17.1495 19.3418 16.6551 20 15.9738 20H3.02801C2.34589 20 1.85045 19.3408 2.05157 18.6814C2.47994 17.2769 3.29738 16.2826 4.64115 15.6993Z" fill="#ffbf00"/>
      <path d="M14.8185 14.0364C14.4045 14.0621 14.3802 14.6183 14.7606 14.7837V14.7837C15.803 15.237 16.5879 15.9043 17.1508 16.756C17.6127 17.4549 18.33 18 19.1677 18H20.9483C21.6555 18 22.1715 17.2973 21.9227 16.6108C21.9084 16.5713 21.8935 16.5321 21.8781 16.4932C21.5357 15.6286 20.9488 14.9921 20.0798 14.5864C19.2639 14.2055 18.2425 14.0483 17.0392 14.0008L17.0194 14H16.9997C16.2909 14 15.5506 13.9909 14.8185 14.0364Z" fill="#ffbf00"/>
    </symbol>
    <symbol id="icon-home" viewBox="0 0 24 24">
      <path d="M23.586,10.921L19.955,7.29V3.075C19.955,2.255,19.29,1.59,18.47,1.59C17.65,1.59,16.985,2.255,16.985,3.075V4.447L14.323,1.785C13.003,0.465,10.678,0.467,9.36,1.789L0.4,10.749C0.133,11.016,0,11.378,0,11.749C0,12.12,0.133,12.482,0.4,12.749C0.667,13.016,1.029,13.149,1.4,13.149C1.771,13.149,2.133,13.016,2.4,12.749L9.36,5.789C9.717,5.432,10.213,5.432,10.569,5.789L17.529,12.749C17.796,13.016,18.158,13.149,18.529,13.149C18.9,13.149,19.262,13.016,19.529,12.749C19.796,12.482,19.929,12.12,19.929,11.749C19.929,11.378,19.796,11.016,19.529,10.749Z" />
      <path d="M12.409,6.367C12.145,6.103,11.727,6.103,11.463,6.367L3.496,14.334C3.37,14.46,3.3,14.634,3.3,14.813V20.627C3.3,22.667,5.033,24.4,7.073,24.4H10.027V17.473H13.973V24.4H16.927C18.967,24.4,20.7,22.667,20.7,20.627V14.813C20.7,14.634,20.63,14.46,20.504,14.334L12.409,6.367Z" />
    </symbol>
    <symbol id="icon-cart" viewBox="0 0 24 24">
      <path d="M7.2998 5H22L20 12H8.37675M21 16H9L7 3H4M4 8H2M5 11H2M6 14H2M10 20C10 20.5523 9.55228 21 9 21C8.44772 21 8 20.5523 8 20C8 19.4477 8.44772 19 9 19C9.55228 19 10 19.4477 10 20ZM21 20C21 20.5523 20.5523 21 20 21C19.4477 21 19 20.5523 19 20C19 19.4477 19.4477 19 20 19C20.5523 19 21 19.4477 21 20Z" fill="currentColor" stroke="none"/>
    </symbol>
    <symbol id="icon-arrow-right" viewBox="0 0 24 24">
      <path d="M9.71069 18.2929C10.1012 18.6834 10.7344 18.6834 11.1249 18.2929L16.0123 13.4006C16.7927 12.6195 16.7924 11.3537 16.0117 10.5729L11.1213 5.68254C10.7308 5.29202 10.0976 5.29202 9.70708 5.68254C9.31655 6.07307 9.31655 6.70623 9.70708 7.09676L13.8927 11.2824C14.2833 11.6729 14.2833 12.3061 13.8927 12.6966L9.71069 16.8787C9.32016 17.2692 9.32016 17.9023 9.71069 18.2929Z" fill="currentColor" stroke="none"/>
    </symbol>
    <symbol id="icon-arrow-upper" viewBox="0 0 24 24">
      <path d="M18.2929 15.2893C18.6834 14.8988 18.6834 14.2656 18.2929 13.8751L13.4007 8.98766C12.6195 8.20726 11.3537 8.20757 10.5729 8.98835L5.68257 13.8787C5.29205 14.2692 5.29205 14.9024 5.68257 15.2929C6.0731 15.6835 6.70626 15.6835 7.09679 15.2929L11.2824 11.1073C11.673 10.7168 12.3061 10.7168 12.6966 11.1073L16.8787 15.2893C17.2692 15.6798 17.9024 15.6798 18.2929 15.2893Z" fill="currentColor" stroke="none"/>
    </symbol>
  </defs>
</svg>